<?xml version="1.0" encoding="UTF-8"?><svg id="a" xmlns="http://www.w3.org/2000/svg" viewBox="0 0 34 34"><defs><style>.b{fill:none;}</style></defs><g><path d="M23.01,7H11.01c-1.1,0-2,.9-2,2V25c0,1.1,.9,2,2,2h12c1.1,0,2-.9,2-2V9c0-1.1-.9-2-2-2Zm0,18H11.01V9h12V25Z"/><rect class="b" x="5.01" y="5" width="24" height="24"/><path d="M25.01,29.67c-7.01,4.42-16.27,2.31-20.69-4.7C-.09,17.96,2.01,8.7,9.02,4.29,16.03-.13,25.29,1.97,29.71,8.98c2.86,4.54,3.08,10.27,.56,15.02h2.22c3.86-8.56,.05-18.63-8.5-22.49C15.43-2.35,5.36,1.46,1.5,10.02c-3.86,8.56-.05,18.63,8.5,22.49,4.81,2.17,10.35,1.98,15.01-.5v-2.33Z"/><g><path d="M29.93,26h0c.55,0,1,.45,1,1v6c0,.55-.45,1-1,1h0c-.55,0-1-.45-1-1v-6c0-.55,.45-1,1-1Z"/><rect x="30.44" y="24.34" width="2.1" height="6.2" rx="1" ry="1" transform="translate(-10.18 30.3) rotate(-45)"/><rect x="25.36" y="26.48" width="6.2" height="2.09" rx="1" ry="1" transform="translate(-11.13 28.19) rotate(-45)"/></g></g><path d="M19.06,15.27c-.33-.23-.64-.41-.93-.53-.29-.12-.63-.18-1.02-.18-.65,0-.97,.22-.97,.65,0,.17,.1,.31,.3,.42,.2,.11,.45,.22,.76,.34,.3,.11,.63,.23,.98,.37,.35,.13,.68,.3,.98,.5,.3,.2,.56,.45,.76,.74,.2,.29,.3,.65,.3,1.07,0,.59-.2,1.1-.6,1.54-.4,.44-1,.72-1.78,.85v2.09h-1.38v-2.05c-.46-.05-.93-.17-1.42-.36-.49-.19-.91-.44-1.26-.75l.9-1.4c.45,.27,.87,.48,1.27,.64,.4,.15,.82,.23,1.27,.23,.34,0,.59-.06,.77-.17,.18-.11,.27-.27,.27-.46s-.1-.36-.3-.49c-.2-.13-.45-.26-.76-.38-.3-.12-.63-.25-.99-.38-.36-.13-.69-.29-.99-.49-.3-.2-.56-.44-.76-.73-.2-.29-.3-.65-.3-1.08,0-.61,.21-1.11,.62-1.52,.41-.4,.97-.66,1.69-.77v-1.84h1.38v1.83c.49,.07,.91,.2,1.27,.4,.36,.2,.69,.45,.98,.75l-1.03,1.18Z"/></svg>