<?xml version="1.0" encoding="UTF-8"?><svg id="a" xmlns="http://www.w3.org/2000/svg" xmlns:xlink="http://www.w3.org/1999/xlink" viewBox="0 0 34 34"><defs><style>.c{clip-path:url(#b);}.d{fill:none;}</style><clipPath id="b"><rect class="d" x="9" y="7" width="8" height="20"/></clipPath></defs><g class="c"><g><path d="M23,7H11c-1.1,0-2,.9-2,2V25c0,1.1,.9,2,2,2h12c1.1,0,2-.9,2-2V9c0-1.1-.9-2-2-2Zm0,18H11V9h12V25Z"/><path d="M20,11h-6c-.55,0-1,.45-1,1s.45,1,1,1h6c.55,0,1-.45,1-1s-.45-1-1-1Z"/><path d="M20,15h-6c-.55,0-1,.45-1,1s.45,1,1,1h6c.55,0,1-.45,1-1s-.45-1-1-1Z"/><path d="M19.12,18.53l-2.83,2.82-1.41-1.41c-.39-.39-1.02-.39-1.41,0h0c-.39,.4-.39,1.03,0,1.42l2.13,2.12c.39,.39,1.02,.39,1.41,0l3.54-3.53c.39-.39,.39-1.03,0-1.41-.39-.39-1.03-.39-1.41,0Z"/><rect class="d" x="5" y="5" width="24" height="24"/></g></g><path d="M19.46,21.73v3.27h1.76v-3c-.01-.18,.04-.35,.15-.49,.1-.11,.24-.17,.39-.17,.15,0,.3,.06,.4,.17,.11,.14,.17,.31,.15,.49v3h2v-3.38c-.02-.18,.04-.37,.16-.51,.1-.12,.26-.19,.42-.18,.16,0,.31,.06,.41,.18,.12,.14,.18,.33,.16,.51v3.94c.03,.25-.05,.49-.21,.68-.19,.16-.43,.23-.68,.21h-5.34c-.17,0-.35-.02-.51-.09-.13-.06-.23-.16-.29-.29-.07-.16-.1-.34-.09-.51v-3.83c-.02-.18,.04-.37,.16-.51,.1-.11,.25-.18,.4-.17,.15,0,.3,.06,.41,.17,.11,.15,.16,.33,.15,.51Z"/><path d="M22.44,17.83v.51h2.3c.24-.02,.48,.05,.67,.2,.14,.14,.22,.32,.21,.52,.01,.2-.07,.4-.22,.54-.19,.14-.42,.21-.66,.19h-5.51c-.41,.08-.81-.19-.89-.6-.02-.09-.02-.19,0-.29v-3.19c.03-.22,.09-.43,.17-.63,.1-.22,.24-.42,.41-.59,.17-.17,.38-.31,.61-.39,.24-.09,.49-.14,.74-.14,.47-.02,.93,.14,1.28,.45,.36,.38,.6,.85,.68,1.37,.16-.28,.36-.53,.6-.74,.27-.23,.56-.44,.86-.62,.26-.17,.53-.31,.81-.43,.16-.08,.33-.14,.5-.16,.1,0,.2,.03,.28,.09,.1,.06,.17,.15,.22,.25,.06,.11,.08,.24,.08,.36,0,.15-.03,.29-.11,.41-.08,.11-.18,.21-.29,.29-.12,.08-.29,.19-.52,.32l-1,.58c-.28,.17-.55,.35-.81,.56-.16,.14-.29,.31-.38,.5-.05,.21-.06,.43-.03,.64Zm-3-.83v1.34h2v-1.34c0-.3-.02-.59-.09-.88-.04-.21-.15-.4-.31-.54-.17-.14-.38-.21-.6-.19-.18,0-.37,.05-.52,.15-.15,.1-.27,.25-.34,.42-.11,.34-.16,.69-.15,1.04h.01Z"/><path d="M22.71,9.81v1.33h2c.24-.01,.47,.06,.66,.2,.15,.13,.23,.32,.22,.52,0,.2-.07,.39-.22,.53-.19,.14-.42,.21-.65,.2h-5.49c-.25,.03-.49-.05-.68-.22-.16-.2-.23-.45-.21-.7v-1.86c-.01-.43,.03-.85,.13-1.27,.08-.28,.22-.54,.41-.76,.19-.21,.43-.38,.69-.48,.29-.12,.61-.17,.92-.17,.63-.05,1.24,.2,1.66,.67,.42,.58,.62,1.29,.56,2.01Zm-3.28,.35v1h2.19v-1c0-.29-.03-.57-.11-.85-.06-.21-.18-.4-.35-.53-.19-.13-.41-.19-.64-.18-.28-.01-.56,.09-.77,.28-.26,.37-.37,.83-.32,1.28Z"/><path d="M25,29.67c-7.01,4.42-16.27,2.31-20.69-4.7C-.1,17.96,2,8.7,9.01,4.29,16.02-.13,25.28,1.97,29.7,8.98c2.86,4.54,3.08,10.27,.56,15.02h2.22c3.86-8.56,.05-18.63-8.5-22.49C15.42-2.35,5.35,1.46,1.49,10.02c-3.86,8.56-.05,18.63,8.5,22.49,4.81,2.17,10.35,1.98,15.01-.5v-2.33Z"/><path d="M32.46,25.66c-.19-.2-.46-.33-.76-.33h-4.1c-.58,0-1.05,.47-1.05,1.04s.47,1.04,1.05,1.04h1.7l-3.19,3.19c-.39,.39-.39,1.02,0,1.41s1.02,.39,1.41,0l3.21-3.21v1.72c0,.58,.47,1.05,1.05,1.05s1.04-.47,1.04-1.05v-4.1c0-.32-.15-.59-.37-.78Z"/></svg>