<?xml version="1.0" encoding="UTF-8"?><svg id="a" xmlns="http://www.w3.org/2000/svg" viewBox="0 0 34 34"><defs><style>.b{fill:none;}</style></defs><path d="M25,24H9c-1.1,0-2-.9-2-2V12c0-1.1,.9-2,2-2H25c1.1,0,2,.9,2,2v10c0,1.1-.9,2-2,2ZM9,12v10H25V12H9Z"/><rect x="9" y="14" width="16" height="2"/><circle cx="21.9" cy="20" r="1.5"/><circle cx="19.4" cy="20" r="1.5"/><rect class="b" x="5" y="5" width="24" height="24"/><path d="M25,29.7c-2.41,1.48-5.17,2.27-8,2.3-8.23-.05-14.86-6.76-14.81-14.99,.05-8.23,6.76-14.86,14.99-14.81,8.23,.05,14.86,6.76,14.81,14.99-.01,2.37-.6,4.7-1.69,6.81h2.2c.97-2.21,1.48-4.59,1.5-7C34,7.61,26.39,0,17,0S0,7.61,0,17s7.61,17,17,17c2.79,.01,5.54-.68,8-2v-2.3Z"/><g><path d="M30.09,32.92h0c-.55,0-1-.45-1-1v-6c0-.55,.45-1,1-1h0c.55,0,1,.45,1,1v6c0,.55-.45,1-1,1Z"/><rect x="27.48" y="28.38" width="2.1" height="6.2" rx="1" ry="1" transform="translate(-13.9 29.4) rotate(-45)"/><rect x="28.46" y="30.35" width="6.2" height="2.09" rx="1" ry="1" transform="translate(-12.95 31.51) rotate(-45)"/></g></svg>