<?xml version="1.0" encoding="UTF-8"?><svg id="a" xmlns="http://www.w3.org/2000/svg" viewBox="0 0 34 34"><defs><style>.b{fill:none;}</style></defs><path d="M23.01,7H11.01c-1.1,0-2,.9-2,2V25c0,1.1,.9,2,2,2h12c1.1,0,2-.9,2-2V9c0-1.1-.9-2-2-2Zm0,18H11.01V9h12V25Z"/><path d="M20.01,11h-6c-.55,0-1,.45-1,1s.45,1,1,1h6c.55,0,1-.45,1-1s-.45-1-1-1Z"/><path d="M20.01,15h-6c-.55,0-1,.45-1,1s.45,1,1,1h6c.55,0,1-.45,1-1s-.45-1-1-1Z"/><path d="M19.13,18.53l-2.83,2.82-1.41-1.41c-.39-.39-1.02-.39-1.41,0h0c-.39,.4-.39,1.03,0,1.42l2.13,2.12c.39,.39,1.02,.39,1.41,0l3.54-3.53c.39-.39,.39-1.03,0-1.41-.39-.39-1.03-.39-1.41,0Z"/><rect class="b" x="5.01" y="5" width="24" height="24"/><path d="M25.01,29.67c-7.01,4.42-16.27,2.31-20.69-4.7C-.1,17.96,2.01,8.7,9.02,4.29,16.03-.13,25.29,1.97,29.7,8.98c2.86,4.54,3.08,10.27,.56,15.02h2.22c3.86-8.56,.05-18.63-8.5-22.49C15.42-2.35,5.36,1.46,1.49,10.02c-3.86,8.56-.05,18.63,8.5,22.49,4.81,2.17,10.35,1.98,15.01-.5v-2.33Z"/><g><path d="M29.93,26h0c.55,0,1,.45,1,1v6c0,.55-.45,1-1,1h0c-.55,0-1-.45-1-1v-6c0-.55,.45-1,1-1Z"/><rect x="30.43" y="24.34" width="2.1" height="6.2" rx="1" ry="1" transform="translate(-10.18 30.3) rotate(-45)"/><rect x="25.35" y="26.48" width="6.2" height="2.09" rx="1" ry="1" transform="translate(-11.13 28.18) rotate(-45)"/></g></svg>