<svg id="Calque_1" data-name="Calque 1" xmlns="http://www.w3.org/2000/svg" viewBox="0 0 18 18"><defs><style>.cls-1{fill:#b2bec6;}</style></defs><circle class="cls-1" cx="6.33" cy="8.35" r="1"/><path class="cls-1" d="M14.59,4.34,11.74,1.48l-2,2,.09.21a1,1,0,0,1,0,.26A.84.84,0,1,1,8.17,4,.85.85,0,0,1,9,3.13l.23,0,.19,0L11.69,1H6.79L3.41,4.34a1.15,1.15,0,0,0-.34.8V15.9a1.16,1.16,0,0,0,1.15,1.15h9.56a1.16,1.16,0,0,0,1.15-1.15V5.14A1.15,1.15,0,0,0,14.59,4.34Zm-8.26,2a2,2,0,1,1,0,3.93,2,2,0,1,1,0-3.93Zm5.33,9.26a2,2,0,0,1-2-2,2,2,0,1,1,2,2Zm2.1-8.74L4.89,15.78a.43.43,0,0,1-.33.14.45.45,0,0,1-.33-.14.47.47,0,0,1-.16-.3.54.54,0,0,1,.12-.38l8.89-8.88a.48.48,0,0,1,.68.68Z"/><path class="cls-1" d="M11.66,12.65a1,1,0,1,0,1,1A1,1,0,0,0,11.66,12.65Z"/></svg>