<svg xmlns="http://www.w3.org/2000/svg" viewBox="0 0 34 34">
	<path d="M16.44,12H11.56a.89.89,0,0,0-.81,1,.89.89,0,0,0,.81,1h4.88a.89.89,0,0,0,.81-1A.89.89,0,0,0,16.44,12Z"/>
	<rect x="5.5" y="5" width="24" height="24" fill="none"/>
	<circle cx="12" cy="18" r="1"/>
	<circle cx="15" cy="18" r="1"/>
	<circle cx="12" cy="21" r="1"/>
	<circle cx="15" cy="21" r="1"/>
	<path d="M9.13,25.1V9.9h9.75v6.65H20.5V9.9a2,2,0,0,0-2-1.9h-9a2,2,0,0,0-2,1.9V25.1a2,2,0,0,0,2,1.9H18V25.1Z"/>
	<path d="M21,18H19a.47.47,0,0,0-.5.45v8.1A.47.47,0,0,0,19,27h2a.47.47,0,0,0,.5-.45v-8.1A.47.47,0,0,0,21,18Zm-.5,8h-1V19h1Z"/>
	<path d="M23.5,20h-2a.5.5,0,0,0-.5.5v6a.5.5,0,0,0,.5.5h2a.5.5,0,0,0,.5-.5v-6A.5.5,0,0,0,23.5,20ZM23,26H22V21h1Z"/>
	<path d="M26,15H24a.56.56,0,0,0-.5.6V26.47a.56.56,0,0,0,.5.6h2a.56.56,0,0,0,.5-.6V15.6A.56.56,0,0,0,26,15Zm-.5,11h-1V16h1Z"/>
	<path d="M25,29.67A15,15,0,1,1,30.26,24h2.22A17,17,0,1,0,25,32Z"/>
	<path d="M26,26h8v8H26Z" fill="none"/>
	<path d="M30,27a2.15,2.15,0,0,0-2.48-.41l1.21,1.21a.33.33,0,0,1,0,.47l-.53.53a.33.33,0,0,1-.47,0l-1.21-1.21a2.17,2.17,0,0,0,2.71,3l2.66,2.65a.87.87,0,0,0,1.23-1.24L30.51,29.3A2.16,2.16,0,0,0,30,27Z"/>
</svg>