<svg xmlns="http://www.w3.org/2000/svg" viewBox="0 0 34 34"><rect x="7" y="10" width="20" height="2" rx="1"/><rect x="13" y="14" width="8" height="2" rx="1"/><rect x="13" y="18" width="8" height="2" rx="1"/><path d="M24,11.05H23v11.4l-2-1.64-4,3.27-4-3.27-2,2.13L11,11H10a1.06,1.06,0,0,0-1,1.09L9,25a1,1,0,0,0,1.66.83l1.69-1.58a.92.92,0,0,1,1.3,0l2.7,2.52a.92.92,0,0,0,1.3,0l2.7-2.52a.92.92,0,0,1,1.3,0l1.69,1.58A1,1,0,0,0,25,25V12.15A1.05,1.05,0,0,0,24,11.05Z"/><path d="M25,29.67A15,15,0,1,1,30.26,24h2.22A17,17,0,1,0,25,32Z"/><rect x="29" y="25" width="2" height="8" rx="1"/><rect x="29" y="25" width="2" height="8" rx="1" transform="translate(1 59) rotate(-90)"/></svg>