<svg xmlns="http://www.w3.org/2000/svg" viewBox="0 0 34 34"><rect x="7" y="10.3" width="16" height="2"/><rect x="11" y="14.46" width="8" height="2" rx="1"/><rect x="11" y="17.46" width="8" height="2" rx="1"/><path d="M22,11.05H21V22.44l-2-1.63-4,3.27-4-3.27L9,22.93,9,11H8a1.05,1.05,0,0,0-1,1.09L7,25a1,1,0,0,0,1.66.83l1.68-1.59a1,1,0,0,1,1.31,0l2.69,2.53a.93.93,0,0,0,1.31,0l2.69-2.53a1,1,0,0,1,1.31,0l1.69,1.59A1,1,0,0,0,23,25V12.14A1.05,1.05,0,0,0,22,11.05Z"/><rect x="11" y="7" width="15" height="2"/><rect x="24" y="8" width="2" height="13"/><path d="M25,29.67A15,15,0,1,1,30.26,24h2.22A17,17,0,1,0,25,32Z"/><rect x="29" y="25" width="2" height="8" rx="1"/><rect x="29" y="25" width="2" height="8" rx="1" transform="translate(1 59) rotate(-90)"/></svg>