<svg xmlns="http://www.w3.org/2000/svg" viewBox="0 0 34 34"><path d="M23.1,7.1h-2a1.1,1.1,0,0,0-1-1h-6a1,1,0,0,0-1,1h-2a2,2,0,0,0-2,2v16a2,2,0,0,0,2,2h12a2,2,0,0,0,2-2V9.1A2,2,0,0,0,23.1,7.1Zm0,18h-12V9.1h2a.9.9,0,0,0,1,1h6a1,1,0,0,0,1-1h2Z"/><path d="M21.1,20.1h-2a1,1,0,0,0-1,1,.9.9,0,0,0,1,1h2a1,1,0,0,0,1-1A1.1,1.1,0,0,0,21.1,20.1Z"/><path d="M19.1,14.1a1,1,0,0,0-1,1,.9.9,0,0,0,1,1h2a1,1,0,0,0,1-1,1.1,1.1,0,0,0-1-1Z"/><rect x="5.1" y="5.1" width="24" height="24" fill="none"/><path d="M16.4,13.7l-1.9,1.8-.9-.9a.6.6,0,0,0-.9,0,.7.7,0,0,0,0,.9l1.4,1.4a.7.7,0,0,0,.9,0l2.3-2.3a.7.7,0,0,0,0-.9A.6.6,0,0,0,16.4,13.7Z"/><path d="M16.4,19.7l-1.9,1.8-.9-.9a.6.6,0,0,0-.9,0,.7.7,0,0,0,0,.9l1.4,1.4a.7.7,0,0,0,.9,0l2.3-2.3a.7.7,0,0,0,0-.9A.6.6,0,0,0,16.4,19.7Z"/><path d="M25,29.7A15.6,15.6,0,0,1,17,32a14.9,14.9,0,1,1,13.3-8h2.2A17.9,17.9,0,0,0,34,17,17,17,0,1,0,17,34a16.7,16.7,0,0,0,8-2Z"/><rect x="29" y="25" width="2" height="8" rx="1"/><rect x="29" y="25" width="2" height="8" rx="1" transform="translate(1 59) rotate(-90)"/></svg>