<?xml version="1.0" encoding="utf-8"?>
<!-- Generator: Adobe Illustrator 24.1.2, SVG Export Plug-In . SVG Version: 6.00 Build 0)  -->
<svg version="1.1" id="Calque_1" xmlns="http://www.w3.org/2000/svg" xmlns:xlink="http://www.w3.org/1999/xlink" x="0px" y="0px"
	 viewBox="0 0 34 34" style="enable-background:new 0 0 34 34;" xml:space="preserve">
<g>
	<path d="M4.3,25C-0.1,18,2,8.7,9,4.3C16-0.1,25.3,2,29.7,9c2.9,4.5,3.1,10.3,0.6,15h2.2c3.9-8.6,0.1-18.6-8.5-22.5
		C15.4-2.3,5.3,1.5,1.5,10c-3.9,8.6-0.1,18.6,8.5,22.5c4.8,2.2,10.4,2,15-0.5v-2.3C18,34.1,8.7,32,4.3,25z"/>
	<path d="M33,28h-2v-2c0-0.6-0.4-1-1-1s-1,0.4-1,1v2h-2c-0.6,0-1,0.4-1,1s0.4,1,1,1h2v2c0,0.6,0.4,1,1,1s1-0.4,1-1v-2h2
		c0.6,0,1-0.4,1-1S33.6,28,33,28z"/>
	<path d="M8.9,26.7h16.2V7.3H8.9V26.7z M10.5,8.9h13v16.2h-13V8.9z"/>
	<rect x="12.1" y="10.5" width="9.7" height="1.6"/>
	<rect x="12.1" y="13" width="9.7" height="1.6"/>
	<rect x="12.1" y="21.9" width="9.7" height="1.6"/>
	<path d="M21.4,18.8c0,0-0.1,0-0.2,0l-0.1,0c-0.3,0-0.6,0-1-0.1l-0.3,0c-0.1,0-0.1,0-0.3,0c0,0-0.1,0-0.1,0c-0.1,0-0.2,0-0.2,0
		c-0.1,0-0.1-0.1-0.2-0.1c0,0-0.1-0.1-0.2-0.1c0,0-0.1,0-0.1-0.1c-0.1,0-0.2,0-0.3,0c-0.2,0-0.4,0-0.5,0.2c0,0-0.1,0.1-0.2,0.2
		c0-0.2-0.1-0.4-0.2-0.6c-0.1-0.2-0.4-0.3-0.7-0.3c-0.7,0.3-0.9,0.4-1.2,0.8L15.5,19c-0.1,0-0.2,0-0.3,0c-0.1-0.1-0.1-0.2-0.2-0.3
		c0,0-0.1-0.1-0.1-0.1c-0.1-0.1-0.2-0.1-0.3-0.1c-0.1,0-0.1,0-0.2,0c0-0.1,0.1-0.3,0.1-0.4l0.1-0.6c0.1-0.3,0.1-0.6,0.2-0.8
		c0,0,0.1-0.5,0.1-0.6c0-0.1,0-0.2,0-0.2c0-0.2-0.1-0.3-0.3-0.4c-0.1-0.1-0.3-0.1-0.5,0L14,15.7c-0.1,0.1-0.3,0.1-0.4,0.2
		c-0.1,0.1-0.2,0.2-0.2,0.3l-0.1,0.2c-0.2,0.3-0.3,0.6-0.5,0.8l-0.2,0.4c-0.3,0.5-0.6,1-0.9,1.5c-0.1,0.2-0.3,0.4-0.4,0.5
		c0,0-0.1,0.1-0.1,0.1c-0.1,0.1-0.2,0.3-0.2,0.4c0,0.2,0,0.3,0.1,0.5c0.1,0.1,0.2,0.2,0.4,0.2c0.1,0,0.2,0,0.3-0.1l0.1-0.1
		c0,0,0.1,0,0.1-0.1c0.1-0.1,0.3-0.1,0.4-0.3c0.2-0.1,0.3-0.3,0.4-0.5c0,0,0,0,0,0.1c0,0,0,0.1,0,0.1c0,0.2,0.2,0.4,0.3,0.5
		c0.2,0.1,0.4,0.1,0.6-0.1c0.2-0.1,0.3-0.1,0.4-0.2c0.1,0.1,0.4,0.2,0.7,0.2c0.1,0,0.2,0,0.3-0.1c0.1,0.1,0.3,0.1,0.4,0l0.7-0.3
		c0,0,0,0,0,0c0,0,0,0.1,0,0.1c0.1,0.2,0.2,0.3,0.4,0.4c0.2,0.1,0.5,0,0.7-0.1c0.2-0.1,0.4-0.2,0.6-0.4l0,0c0.1,0.1,0.1,0.1,0.2,0.1
		c0,0,0.1,0,0.1,0c0.3,0.1,0.6,0,0.8,0c0.1,0,0.1,0,0.2,0c0.2,0,0.4,0,0.5,0c0.2,0,0.4,0,0.6,0h0.1c0.2,0,0.4,0,0.6-0.1
		c0.1,0,0.1,0,0.2-0.1l0.6-0.5c0.2-0.2,0.3-0.5,0.1-0.7C21.9,18.7,21.6,18.6,21.4,18.8z"/>
</g>
</svg>
