<svg xmlns="http://www.w3.org/2000/svg" viewBox="0 0 52.35 52.35"><path d="M26.18,52.35A26.18,26.18,0,1,1,52.35,26.18,26.2,26.2,0,0,1,26.18,52.35Zm0-50.41A24.24,24.24,0,1,0,50.41,26.18,24.26,24.26,0,0,0,26.18,1.94Z"/><rect x="14.56" y="16.19" width="14.42" height="2.01"/><rect x="14.56" y="24.71" width="14.42" height="2.01"/><rect x="14.56" y="20.45" width="14.42" height="2.01"/><path d="M13.15,38.53a1.74,1.74,0,0,1-1.73-1.73V14.38a1.73,1.73,0,0,1,1.73-1.73H30.4a1.73,1.73,0,0,1,1.73,1.73V27.81H34V14.38A3.57,3.57,0,0,0,30.4,10.8H13.15a3.58,3.58,0,0,0-3.58,3.58V36.8a3.59,3.59,0,0,0,3.58,3.58h1.92V38.53Z"/><path d="M36,29.72H18A1.28,1.28,0,0,0,16.71,31V41.31A1.29,1.29,0,0,0,18,42.6H36a1.29,1.29,0,0,0,1.29-1.29V31A1.28,1.28,0,0,0,36,29.72Zm0,11.59H18V34.87H36Zm0-9H18V31H36Z"/><path d="M30.24,40a1.9,1.9,0,0,0,1.28-.5,1.93,1.93,0,1,0,0-2.86,1.9,1.9,0,0,0-1.28-.5,1.93,1.93,0,1,0,0,3.86Z"/><path d="M46.68,24.46H42.49V20.27a.49.49,0,0,0-1,0v4.19h-4.2a.5.5,0,0,0,0,1h4.2v4.19a.49.49,0,0,0,1,0V25.45h4.19a.5.5,0,0,0,0-1Z"/><path d="M42,30.63a1,1,0,0,1-1-1V26h-3.7a1,1,0,0,1,0-2H41v-3.7a1,1,0,0,1,2,0V24h3.69a1,1,0,0,1,0,2H43v3.69A1,1,0,0,1,42,30.63Z"/></svg>