<svg xmlns="http://www.w3.org/2000/svg" viewBox="0 0 34 34"><path d="M13,24a2,2,0,1,0,2,2A2,2,0,0,0,13,24Zm10,0a2,2,0,1,0,2,2A2,2,0,0,0,23,24Zm-9.18-4.48a1,1,0,0,1,.87-.52h6.86a2,2,0,0,0,1.75-1l3.38-6.14a1,1,0,0,0-.39-1.35h0a1,1,0,0,0-1.35.39l-3.11,5.62A1,1,0,0,1,21,17h-5.8a1,1,0,0,1-.9-.57L10.54,8.57A1,1,0,0,0,9.64,8H8A1,1,0,0,0,7,9V9a1,1,0,0,0,1,1h.38a1,1,0,0,1,.9.57l3.11,6.56a1,1,0,0,1,0,.91l-1.1,2A2,2,0,0,0,13,23H24a1,1,0,0,0,1-1v0a1,1,0,0,0-1-1H14.68a1,1,0,0,1-.87-1.47ZM17,12a1,1,0,1,0,1,1A1,1,0,0,0,17,12ZM13.5,9.5a1,1,0,1,0,1,1A1,1,0,0,0,13.5,9.5Zm4.5,5a1,1,0,1,0,1,1A1,1,0,0,0,18,14.5Zm2.5,0a1,1,0,1,0,1,1A1,1,0,0,0,20.5,14.5Zm-6-2.5a1,1,0,1,0,1,1A1,1,0,0,0,14.5,12Zm5,0a1,1,0,1,0,1,1A1,1,0,0,0,19.5,12ZM22,12a1,1,0,1,0,1,1A1,1,0,0,0,22,12Zm-6.5,2.5a1,1,0,1,0,1,1A1,1,0,0,0,15.5,14.5Zm.5-5a1,1,0,1,0,1,1A1,1,0,0,0,16,9.5Zm2.48,0a1,1,0,1,0,1,1A1,1,0,0,0,18.48,9.5ZM21,9.5a1,1,0,1,0,1,1A1,1,0,0,0,21,9.5Zm2.5,0a1,1,0,1,0,1,1A1,1,0,0,0,23.5,9.5Z"/><path d="M25,29.67A15,15,0,1,1,30.26,24h2.22A17,17,0,1,0,25,32Z"/><rect x="29" y="25" width="2" height="8" rx="1"/><rect x="29" y="25" width="2" height="8" rx="1" transform="translate(1 59) rotate(-90)"/></svg>