<svg xmlns="http://www.w3.org/2000/svg" width="42.916" height="42.057" viewBox="0 0 42.916 42.057">
  <g id="Groupe_6" data-name="Groupe 6" transform="translate(1 1)">
    <g id="Groupe_5" data-name="Groupe 5" transform="translate(0 0)">
      <g id="Groupe_3" data-name="Groupe 3">
        <g id="Icon_feather-shopping-cart" data-name="Icon feather-shopping-cart">
          <g id="Tracé_1" data-name="Tracé 1" transform="translate(1.019 5.337)" fill="none" stroke-linecap="round" stroke-linejoin="round">
            <path d="M15.72,31.86A1.86,1.86,0,1,1,13.86,30,1.86,1.86,0,0,1,15.72,31.86Z" stroke="none"/>
            <path d="M 13.85982894897461 30.00000381469727 C 12.83267879486084 30.00000381469727 11.99999904632568 30.83268356323242 11.99999904632568 31.85984420776367 C 11.99999904632568 32.88700485229492 12.83267879486084 33.71968460083008 13.85982894897461 33.71968460083008 C 14.88698863983154 33.71968460083008 15.71965885162354 32.88700485229492 15.71965885162354 31.85984420776367 C 15.71965885162354 30.83268356323242 14.88698863983154 30.00000381469727 13.85982894897461 30.00000381469727 M 13.85982894897461 28.00000381469727 C 15.98814868927002 28.00000381469727 17.71965789794922 29.73152542114258 17.71965789794922 31.85984420776367 C 17.71965789794922 33.98816680908203 15.98814868927002 35.71968460083008 13.85982894897461 35.71968460083008 C 11.7315092086792 35.71968460083008 9.999998092651367 33.98816680908203 9.999998092651367 31.85984420776367 C 9.999998092651367 29.73152542114258 11.7315092086792 28.00000381469727 13.85982894897461 28.00000381469727 Z" stroke="none" fill="#415364"/>
          </g>
          <g id="Tracé_2" data-name="Tracé 2" transform="translate(4.977 5.337)" fill="none" stroke-linecap="round" stroke-linejoin="round">
            <path d="M32.22,31.86A1.86,1.86,0,1,1,30.36,30,1.86,1.86,0,0,1,32.22,31.86Z" stroke="none"/>
            <path d="M 30.35982704162598 30.00000381469727 C 29.33267784118652 30.00000381469727 28.49999618530273 30.83268356323242 28.49999618530273 31.85984420776367 C 28.49999618530273 32.88700485229492 29.33267784118652 33.71968460083008 30.35982704162598 33.71968460083008 C 31.38698768615723 33.71968460083008 32.21965789794922 32.88700485229492 32.21965789794922 31.85984420776367 C 32.21965789794922 30.83268356323242 31.38698768615723 30.00000381469727 30.35982704162598 30.00000381469727 M 30.35982704162598 28.00000381469727 C 32.4881477355957 28.00000381469727 34.21965789794922 29.73152542114258 34.21965789794922 31.85984420776367 C 34.21965789794922 33.98816680908203 32.4881477355957 35.71968460083008 30.35982704162598 35.71968460083008 C 28.23150634765625 35.71968460083008 26.49999618530273 33.98816680908203 26.49999618530273 31.85984420776367 C 26.49999618530273 29.73152542114258 28.23150634765625 28.00000381469727 30.35982704162598 28.00000381469727 Z" stroke="none" fill="#415364"/>
          </g>
          <path id="Tracé_3" data-name="Tracé 3" d="M1.5,1.5H8.939l4.984,24.9a3.72,3.72,0,0,0,3.72,2.994H35.721a3.72,3.72,0,0,0,3.72-2.994l2.976-15.6H10.8" transform="translate(-1.5 -1.5)" fill="none" stroke="#415364" stroke-linecap="round" stroke-linejoin="round" stroke-width="2"/>
        </g>
      </g>
    </g>
  </g>
</svg>
