<svg xmlns="http://www.w3.org/2000/svg" viewBox="0 0 34 34"><path d="M23,7H11A2,2,0,0,0,9,9V25a2,2,0,0,0,2,2H23a2,2,0,0,0,2-2V9A2,2,0,0,0,23,7Zm0,18H11V9H23Z"/><path d="M20,11H14a1,1,0,0,0,0,2h6a1,1,0,0,0,0-2Z"/><path d="M20,15.7H14a.9.9,0,0,0-1,1,1,1,0,0,0,1,1h6a1,1,0,0,0,1-1A.9.9,0,0,0,20,15.7Z"/><path d="M20,20.3H14a1,1,0,0,0-1,1,.9.9,0,0,0,1,1h6a.9.9,0,0,0,1-1A1,1,0,0,0,20,20.3Z"/><path d="M25,29.7A15.6,15.6,0,0,1,17,32a14.9,14.9,0,1,1,13.3-8h2.2A17.9,17.9,0,0,0,34,17,17,17,0,1,0,17,34a16.7,16.7,0,0,0,8-2Z"/><rect x="29" y="26" width="2" height="8" rx="1"/><rect x="30.5" y="24.4" width="2.1" height="6.2" rx="1" transform="translate(-10.2 30.3) rotate(-45)"/><rect x="25.4" y="26.5" width="6.2" height="2.09" rx="1" transform="translate(-11.1 28.2) rotate(-45)"/></svg>