<svg xmlns="http://www.w3.org/2000/svg" xmlns:xlink="http://www.w3.org/1999/xlink" viewBox="0 0 34 34"><defs><symbol id="a" viewBox="0 0 24 24"><path d="M16,19H5a2,2,0,0,1-2-2V4A2,2,0,0,1,5,2H16a2,2,0,0,1,2,2V17A2,2,0,0,1,16,19ZM5,4V17H16V4Z"/><path d="M19.07,6V20H6v2H18.43A2.62,2.62,0,0,0,21,19.33V6Z"/><rect width="24" height="24" fill="none"/><path d="M13.14,6H8A.94.94,0,0,0,7.1,7,.94.94,0,0,0,8,8h5.18A.94.94,0,0,0,14,7,.94.94,0,0,0,13.14,6Z"/><path d="M13.14,9.5H8a.94.94,0,0,0-.86,1,.94.94,0,0,0,.86,1h5.18a.94.94,0,0,0,.86-1A.94.94,0,0,0,13.14,9.5Z"/><path d="M13.14,13H8a1,1,0,0,0,0,2h5.18a1,1,0,0,0,0-2Z"/></symbol><symbol id="b" viewBox="0 0 34 34"><path d="M25,29.67A15,15,0,1,1,30.26,24h2.22A17,17,0,1,0,25,32Z"/></symbol><symbol id="c" viewBox="0 0 8 9"><rect x="3" y="1" width="2" height="8" rx="1"/><path d="M7.69,4.69h0a1,1,0,0,1-1.48,0l-2.9-2.9a1,1,0,0,1,0-1.48h0a1,1,0,0,1,1.48,0l2.9,2.9A1,1,0,0,1,7.69,4.69Z"/><path d="M.31,4.69h0a1,1,0,0,0,1.48,0l2.9-2.9a1,1,0,0,0,0-1.48h0a1,1,0,0,0-1.48,0L.31,3.21A1,1,0,0,0,.31,4.69Z"/></symbol></defs><use width="24" height="24" transform="translate(5 5)" xlink:href="#a"/><use width="34" height="34" xlink:href="#b"/><use width="8" height="9" transform="translate(26 25)" xlink:href="#c"/></svg>